<?xml version="1.0" encoding="utf-8" standalone="no"?>
<!DOCTYPE svg PUBLIC "-//W3C//DTD SVG 1.1//EN"
  "http://www.w3.org/Graphics/SVG/1.1/DTD/svg11.dtd">
<svg xmlns:xlink="http://www.w3.org/1999/xlink" width="460.8pt" height="345.6pt" viewBox="0 0 460.8 345.6" xmlns="http://www.w3.org/2000/svg" version="1.1">
 <metadata>
  <rdf:RDF xmlns:dc="http://purl.org/dc/elements/1.1/" xmlns:cc="http://creativecommons.org/ns#" xmlns:rdf="http://www.w3.org/1999/02/22-rdf-syntax-ns#">
   <cc:Work>
    <dc:type rdf:resource="http://purl.org/dc/dcmitype/StillImage"/>
    <dc:date>2023-03-23T00:27:56.903162</dc:date>
    <dc:format>image/svg+xml</dc:format>
    <dc:creator>
     <cc:Agent>
      <dc:title>Matplotlib v3.7.1, https://matplotlib.org/</dc:title>
     </cc:Agent>
    </dc:creator>
   </cc:Work>
  </rdf:RDF>
 </metadata>
 <defs>
  <style type="text/css">*{stroke-linejoin: round; stroke-linecap: butt}</style>
 </defs>
 <g id="figure_1">
  <g id="patch_1">
   <path d="M 0 345.6 
L 460.8 345.6 
L 460.8 0 
L 0 0 
z
" style="fill: #ffffff"/>
  </g>
  <g id="axes_1">
   <g id="patch_2">
    <path d="M 47.72 303.64 
L 450 303.64 
L 450 26.88 
L 47.72 26.88 
z
" style="fill: #ffffff"/>
   </g>
   <g id="matplotlib.axis_1">
    <g id="xtick_1">
     <g id="line2d_1">
      <defs>
       <path id="m9ad7a603eb" d="M 0 0 
L 0 3.5 
" style="stroke: #000000; stroke-width: 0.8"/>
      </defs>
      <g>
       <use xlink:href="#m9ad7a603eb" x="125.782533" y="303.64" style="stroke: #000000; stroke-width: 0.8"/>
      </g>
     </g>
     <g id="text_1">
      <!-- 4.4 -->
      <g transform="translate(117.830971 318.238437) scale(0.1 -0.1)">
       <defs>
        <path id="DejaVuSans-34" d="M 2419 4116 
L 825 1625 
L 2419 1625 
L 2419 4116 
z
M 2253 4666 
L 3047 4666 
L 3047 1625 
L 3713 1625 
L 3713 1100 
L 3047 1100 
L 3047 0 
L 2419 0 
L 2419 1100 
L 313 1100 
L 313 1709 
L 2253 4666 
z
" transform="scale(0.015625)"/>
        <path id="DejaVuSans-2e" d="M 684 794 
L 1344 794 
L 1344 0 
L 684 0 
L 684 794 
z
" transform="scale(0.015625)"/>
       </defs>
       <use xlink:href="#DejaVuSans-34"/>
       <use xlink:href="#DejaVuSans-2e" x="63.623047"/>
       <use xlink:href="#DejaVuSans-34" x="95.410156"/>
      </g>
     </g>
    </g>
    <g id="xtick_2">
     <g id="line2d_2">
      <g>
       <use xlink:href="#m9ad7a603eb" x="213.242797" y="303.64" style="stroke: #000000; stroke-width: 0.8"/>
      </g>
     </g>
     <g id="text_2">
      <!-- 4.6 -->
      <g transform="translate(205.291235 318.238437) scale(0.1 -0.1)">
       <defs>
        <path id="DejaVuSans-36" d="M 2113 2584 
Q 1688 2584 1439 2293 
Q 1191 2003 1191 1497 
Q 1191 994 1439 701 
Q 1688 409 2113 409 
Q 2538 409 2786 701 
Q 3034 994 3034 1497 
Q 3034 2003 2786 2293 
Q 2538 2584 2113 2584 
z
M 3366 4563 
L 3366 3988 
Q 3128 4100 2886 4159 
Q 2644 4219 2406 4219 
Q 1781 4219 1451 3797 
Q 1122 3375 1075 2522 
Q 1259 2794 1537 2939 
Q 1816 3084 2150 3084 
Q 2853 3084 3261 2657 
Q 3669 2231 3669 1497 
Q 3669 778 3244 343 
Q 2819 -91 2113 -91 
Q 1303 -91 875 529 
Q 447 1150 447 2328 
Q 447 3434 972 4092 
Q 1497 4750 2381 4750 
Q 2619 4750 2861 4703 
Q 3103 4656 3366 4563 
z
" transform="scale(0.015625)"/>
       </defs>
       <use xlink:href="#DejaVuSans-34"/>
       <use xlink:href="#DejaVuSans-2e" x="63.623047"/>
       <use xlink:href="#DejaVuSans-36" x="95.410156"/>
      </g>
     </g>
    </g>
    <g id="xtick_3">
     <g id="line2d_3">
      <g>
       <use xlink:href="#m9ad7a603eb" x="300.703061" y="303.64" style="stroke: #000000; stroke-width: 0.8"/>
      </g>
     </g>
     <g id="text_3">
      <!-- 4.8 -->
      <g transform="translate(292.751499 318.238437) scale(0.1 -0.1)">
       <defs>
        <path id="DejaVuSans-38" d="M 2034 2216 
Q 1584 2216 1326 1975 
Q 1069 1734 1069 1313 
Q 1069 891 1326 650 
Q 1584 409 2034 409 
Q 2484 409 2743 651 
Q 3003 894 3003 1313 
Q 3003 1734 2745 1975 
Q 2488 2216 2034 2216 
z
M 1403 2484 
Q 997 2584 770 2862 
Q 544 3141 544 3541 
Q 544 4100 942 4425 
Q 1341 4750 2034 4750 
Q 2731 4750 3128 4425 
Q 3525 4100 3525 3541 
Q 3525 3141 3298 2862 
Q 3072 2584 2669 2484 
Q 3125 2378 3379 2068 
Q 3634 1759 3634 1313 
Q 3634 634 3220 271 
Q 2806 -91 2034 -91 
Q 1263 -91 848 271 
Q 434 634 434 1313 
Q 434 1759 690 2068 
Q 947 2378 1403 2484 
z
M 1172 3481 
Q 1172 3119 1398 2916 
Q 1625 2713 2034 2713 
Q 2441 2713 2670 2916 
Q 2900 3119 2900 3481 
Q 2900 3844 2670 4047 
Q 2441 4250 2034 4250 
Q 1625 4250 1398 4047 
Q 1172 3844 1172 3481 
z
" transform="scale(0.015625)"/>
       </defs>
       <use xlink:href="#DejaVuSans-34"/>
       <use xlink:href="#DejaVuSans-2e" x="63.623047"/>
       <use xlink:href="#DejaVuSans-38" x="95.410156"/>
      </g>
     </g>
    </g>
    <g id="xtick_4">
     <g id="line2d_4">
      <g>
       <use xlink:href="#m9ad7a603eb" x="388.163325" y="303.64" style="stroke: #000000; stroke-width: 0.8"/>
      </g>
     </g>
     <g id="text_4">
      <!-- 5.0 -->
      <g transform="translate(380.211763 318.238437) scale(0.1 -0.1)">
       <defs>
        <path id="DejaVuSans-35" d="M 691 4666 
L 3169 4666 
L 3169 4134 
L 1269 4134 
L 1269 2991 
Q 1406 3038 1543 3061 
Q 1681 3084 1819 3084 
Q 2600 3084 3056 2656 
Q 3513 2228 3513 1497 
Q 3513 744 3044 326 
Q 2575 -91 1722 -91 
Q 1428 -91 1123 -41 
Q 819 9 494 109 
L 494 744 
Q 775 591 1075 516 
Q 1375 441 1709 441 
Q 2250 441 2565 725 
Q 2881 1009 2881 1497 
Q 2881 1984 2565 2268 
Q 2250 2553 1709 2553 
Q 1456 2553 1204 2497 
Q 953 2441 691 2322 
L 691 4666 
z
" transform="scale(0.015625)"/>
        <path id="DejaVuSans-30" d="M 2034 4250 
Q 1547 4250 1301 3770 
Q 1056 3291 1056 2328 
Q 1056 1369 1301 889 
Q 1547 409 2034 409 
Q 2525 409 2770 889 
Q 3016 1369 3016 2328 
Q 3016 3291 2770 3770 
Q 2525 4250 2034 4250 
z
M 2034 4750 
Q 2819 4750 3233 4129 
Q 3647 3509 3647 2328 
Q 3647 1150 3233 529 
Q 2819 -91 2034 -91 
Q 1250 -91 836 529 
Q 422 1150 422 2328 
Q 422 3509 836 4129 
Q 1250 4750 2034 4750 
z
" transform="scale(0.015625)"/>
       </defs>
       <use xlink:href="#DejaVuSans-35"/>
       <use xlink:href="#DejaVuSans-2e" x="63.623047"/>
       <use xlink:href="#DejaVuSans-30" x="95.410156"/>
      </g>
     </g>
    </g>
    <g id="text_5">
     <!-- Log of distance -->
     <g transform="translate(210.743594 331.916562) scale(0.1 -0.1)">
      <defs>
       <path id="DejaVuSans-4c" d="M 628 4666 
L 1259 4666 
L 1259 531 
L 3531 531 
L 3531 0 
L 628 0 
L 628 4666 
z
" transform="scale(0.015625)"/>
       <path id="DejaVuSans-6f" d="M 1959 3097 
Q 1497 3097 1228 2736 
Q 959 2375 959 1747 
Q 959 1119 1226 758 
Q 1494 397 1959 397 
Q 2419 397 2687 759 
Q 2956 1122 2956 1747 
Q 2956 2369 2687 2733 
Q 2419 3097 1959 3097 
z
M 1959 3584 
Q 2709 3584 3137 3096 
Q 3566 2609 3566 1747 
Q 3566 888 3137 398 
Q 2709 -91 1959 -91 
Q 1206 -91 779 398 
Q 353 888 353 1747 
Q 353 2609 779 3096 
Q 1206 3584 1959 3584 
z
" transform="scale(0.015625)"/>
       <path id="DejaVuSans-67" d="M 2906 1791 
Q 2906 2416 2648 2759 
Q 2391 3103 1925 3103 
Q 1463 3103 1205 2759 
Q 947 2416 947 1791 
Q 947 1169 1205 825 
Q 1463 481 1925 481 
Q 2391 481 2648 825 
Q 2906 1169 2906 1791 
z
M 3481 434 
Q 3481 -459 3084 -895 
Q 2688 -1331 1869 -1331 
Q 1566 -1331 1297 -1286 
Q 1028 -1241 775 -1147 
L 775 -588 
Q 1028 -725 1275 -790 
Q 1522 -856 1778 -856 
Q 2344 -856 2625 -561 
Q 2906 -266 2906 331 
L 2906 616 
Q 2728 306 2450 153 
Q 2172 0 1784 0 
Q 1141 0 747 490 
Q 353 981 353 1791 
Q 353 2603 747 3093 
Q 1141 3584 1784 3584 
Q 2172 3584 2450 3431 
Q 2728 3278 2906 2969 
L 2906 3500 
L 3481 3500 
L 3481 434 
z
" transform="scale(0.015625)"/>
       <path id="DejaVuSans-20" transform="scale(0.015625)"/>
       <path id="DejaVuSans-66" d="M 2375 4863 
L 2375 4384 
L 1825 4384 
Q 1516 4384 1395 4259 
Q 1275 4134 1275 3809 
L 1275 3500 
L 2222 3500 
L 2222 3053 
L 1275 3053 
L 1275 0 
L 697 0 
L 697 3053 
L 147 3053 
L 147 3500 
L 697 3500 
L 697 3744 
Q 697 4328 969 4595 
Q 1241 4863 1831 4863 
L 2375 4863 
z
" transform="scale(0.015625)"/>
       <path id="DejaVuSans-64" d="M 2906 2969 
L 2906 4863 
L 3481 4863 
L 3481 0 
L 2906 0 
L 2906 525 
Q 2725 213 2448 61 
Q 2172 -91 1784 -91 
Q 1150 -91 751 415 
Q 353 922 353 1747 
Q 353 2572 751 3078 
Q 1150 3584 1784 3584 
Q 2172 3584 2448 3432 
Q 2725 3281 2906 2969 
z
M 947 1747 
Q 947 1113 1208 752 
Q 1469 391 1925 391 
Q 2381 391 2643 752 
Q 2906 1113 2906 1747 
Q 2906 2381 2643 2742 
Q 2381 3103 1925 3103 
Q 1469 3103 1208 2742 
Q 947 2381 947 1747 
z
" transform="scale(0.015625)"/>
       <path id="DejaVuSans-69" d="M 603 3500 
L 1178 3500 
L 1178 0 
L 603 0 
L 603 3500 
z
M 603 4863 
L 1178 4863 
L 1178 4134 
L 603 4134 
L 603 4863 
z
" transform="scale(0.015625)"/>
       <path id="DejaVuSans-73" d="M 2834 3397 
L 2834 2853 
Q 2591 2978 2328 3040 
Q 2066 3103 1784 3103 
Q 1356 3103 1142 2972 
Q 928 2841 928 2578 
Q 928 2378 1081 2264 
Q 1234 2150 1697 2047 
L 1894 2003 
Q 2506 1872 2764 1633 
Q 3022 1394 3022 966 
Q 3022 478 2636 193 
Q 2250 -91 1575 -91 
Q 1294 -91 989 -36 
Q 684 19 347 128 
L 347 722 
Q 666 556 975 473 
Q 1284 391 1588 391 
Q 1994 391 2212 530 
Q 2431 669 2431 922 
Q 2431 1156 2273 1281 
Q 2116 1406 1581 1522 
L 1381 1569 
Q 847 1681 609 1914 
Q 372 2147 372 2553 
Q 372 3047 722 3315 
Q 1072 3584 1716 3584 
Q 2034 3584 2315 3537 
Q 2597 3491 2834 3397 
z
" transform="scale(0.015625)"/>
       <path id="DejaVuSans-74" d="M 1172 4494 
L 1172 3500 
L 2356 3500 
L 2356 3053 
L 1172 3053 
L 1172 1153 
Q 1172 725 1289 603 
Q 1406 481 1766 481 
L 2356 481 
L 2356 0 
L 1766 0 
Q 1100 0 847 248 
Q 594 497 594 1153 
L 594 3053 
L 172 3053 
L 172 3500 
L 594 3500 
L 594 4494 
L 1172 4494 
z
" transform="scale(0.015625)"/>
       <path id="DejaVuSans-61" d="M 2194 1759 
Q 1497 1759 1228 1600 
Q 959 1441 959 1056 
Q 959 750 1161 570 
Q 1363 391 1709 391 
Q 2188 391 2477 730 
Q 2766 1069 2766 1631 
L 2766 1759 
L 2194 1759 
z
M 3341 1997 
L 3341 0 
L 2766 0 
L 2766 531 
Q 2569 213 2275 61 
Q 1981 -91 1556 -91 
Q 1019 -91 701 211 
Q 384 513 384 1019 
Q 384 1609 779 1909 
Q 1175 2209 1959 2209 
L 2766 2209 
L 2766 2266 
Q 2766 2663 2505 2880 
Q 2244 3097 1772 3097 
Q 1472 3097 1187 3025 
Q 903 2953 641 2809 
L 641 3341 
Q 956 3463 1253 3523 
Q 1550 3584 1831 3584 
Q 2591 3584 2966 3190 
Q 3341 2797 3341 1997 
z
" transform="scale(0.015625)"/>
       <path id="DejaVuSans-6e" d="M 3513 2113 
L 3513 0 
L 2938 0 
L 2938 2094 
Q 2938 2591 2744 2837 
Q 2550 3084 2163 3084 
Q 1697 3084 1428 2787 
Q 1159 2491 1159 1978 
L 1159 0 
L 581 0 
L 581 3500 
L 1159 3500 
L 1159 2956 
Q 1366 3272 1645 3428 
Q 1925 3584 2291 3584 
Q 2894 3584 3203 3211 
Q 3513 2838 3513 2113 
z
" transform="scale(0.015625)"/>
       <path id="DejaVuSans-63" d="M 3122 3366 
L 3122 2828 
Q 2878 2963 2633 3030 
Q 2388 3097 2138 3097 
Q 1578 3097 1268 2742 
Q 959 2388 959 1747 
Q 959 1106 1268 751 
Q 1578 397 2138 397 
Q 2388 397 2633 464 
Q 2878 531 3122 666 
L 3122 134 
Q 2881 22 2623 -34 
Q 2366 -91 2075 -91 
Q 1284 -91 818 406 
Q 353 903 353 1747 
Q 353 2603 823 3093 
Q 1294 3584 2113 3584 
Q 2378 3584 2631 3529 
Q 2884 3475 3122 3366 
z
" transform="scale(0.015625)"/>
       <path id="DejaVuSans-65" d="M 3597 1894 
L 3597 1613 
L 953 1613 
Q 991 1019 1311 708 
Q 1631 397 2203 397 
Q 2534 397 2845 478 
Q 3156 559 3463 722 
L 3463 178 
Q 3153 47 2828 -22 
Q 2503 -91 2169 -91 
Q 1331 -91 842 396 
Q 353 884 353 1716 
Q 353 2575 817 3079 
Q 1281 3584 2069 3584 
Q 2775 3584 3186 3129 
Q 3597 2675 3597 1894 
z
M 3022 2063 
Q 3016 2534 2758 2815 
Q 2500 3097 2075 3097 
Q 1594 3097 1305 2825 
Q 1016 2553 972 2059 
L 3022 2063 
z
" transform="scale(0.015625)"/>
      </defs>
      <use xlink:href="#DejaVuSans-4c"/>
      <use xlink:href="#DejaVuSans-6f" x="53.962891"/>
      <use xlink:href="#DejaVuSans-67" x="115.144531"/>
      <use xlink:href="#DejaVuSans-20" x="178.621094"/>
      <use xlink:href="#DejaVuSans-6f" x="210.408203"/>
      <use xlink:href="#DejaVuSans-66" x="271.589844"/>
      <use xlink:href="#DejaVuSans-20" x="306.794922"/>
      <use xlink:href="#DejaVuSans-64" x="338.582031"/>
      <use xlink:href="#DejaVuSans-69" x="402.058594"/>
      <use xlink:href="#DejaVuSans-73" x="429.841797"/>
      <use xlink:href="#DejaVuSans-74" x="481.941406"/>
      <use xlink:href="#DejaVuSans-61" x="521.150391"/>
      <use xlink:href="#DejaVuSans-6e" x="582.429688"/>
      <use xlink:href="#DejaVuSans-63" x="645.808594"/>
      <use xlink:href="#DejaVuSans-65" x="700.789062"/>
     </g>
    </g>
   </g>
   <g id="matplotlib.axis_2">
    <g id="ytick_1">
     <g id="line2d_5">
      <defs>
       <path id="mb45223ac9d" d="M 0 0 
L -3.5 0 
" style="stroke: #000000; stroke-width: 0.8"/>
      </defs>
      <g>
       <use xlink:href="#mb45223ac9d" x="47.72" y="291.064212" style="stroke: #000000; stroke-width: 0.8"/>
      </g>
     </g>
     <g id="text_6">
      <!-- 0.0 -->
      <g transform="translate(24.816875 294.86343) scale(0.1 -0.1)">
       <use xlink:href="#DejaVuSans-30"/>
       <use xlink:href="#DejaVuSans-2e" x="63.623047"/>
       <use xlink:href="#DejaVuSans-30" x="95.410156"/>
      </g>
     </g>
    </g>
    <g id="ytick_2">
     <g id="line2d_6">
      <g>
       <use xlink:href="#mb45223ac9d" x="47.72" y="240.743369" style="stroke: #000000; stroke-width: 0.8"/>
      </g>
     </g>
     <g id="text_7">
      <!-- 0.2 -->
      <g transform="translate(24.816875 244.542588) scale(0.1 -0.1)">
       <defs>
        <path id="DejaVuSans-32" d="M 1228 531 
L 3431 531 
L 3431 0 
L 469 0 
L 469 531 
Q 828 903 1448 1529 
Q 2069 2156 2228 2338 
Q 2531 2678 2651 2914 
Q 2772 3150 2772 3378 
Q 2772 3750 2511 3984 
Q 2250 4219 1831 4219 
Q 1534 4219 1204 4116 
Q 875 4013 500 3803 
L 500 4441 
Q 881 4594 1212 4672 
Q 1544 4750 1819 4750 
Q 2544 4750 2975 4387 
Q 3406 4025 3406 3419 
Q 3406 3131 3298 2873 
Q 3191 2616 2906 2266 
Q 2828 2175 2409 1742 
Q 1991 1309 1228 531 
z
" transform="scale(0.015625)"/>
       </defs>
       <use xlink:href="#DejaVuSans-30"/>
       <use xlink:href="#DejaVuSans-2e" x="63.623047"/>
       <use xlink:href="#DejaVuSans-32" x="95.410156"/>
      </g>
     </g>
    </g>
    <g id="ytick_3">
     <g id="line2d_7">
      <g>
       <use xlink:href="#mb45223ac9d" x="47.72" y="190.422527" style="stroke: #000000; stroke-width: 0.8"/>
      </g>
     </g>
     <g id="text_8">
      <!-- 0.4 -->
      <g transform="translate(24.816875 194.221746) scale(0.1 -0.1)">
       <use xlink:href="#DejaVuSans-30"/>
       <use xlink:href="#DejaVuSans-2e" x="63.623047"/>
       <use xlink:href="#DejaVuSans-34" x="95.410156"/>
      </g>
     </g>
    </g>
    <g id="ytick_4">
     <g id="line2d_8">
      <g>
       <use xlink:href="#mb45223ac9d" x="47.72" y="140.101685" style="stroke: #000000; stroke-width: 0.8"/>
      </g>
     </g>
     <g id="text_9">
      <!-- 0.6 -->
      <g transform="translate(24.816875 143.900903) scale(0.1 -0.1)">
       <use xlink:href="#DejaVuSans-30"/>
       <use xlink:href="#DejaVuSans-2e" x="63.623047"/>
       <use xlink:href="#DejaVuSans-36" x="95.410156"/>
      </g>
     </g>
    </g>
    <g id="ytick_5">
     <g id="line2d_9">
      <g>
       <use xlink:href="#mb45223ac9d" x="47.72" y="89.780842" style="stroke: #000000; stroke-width: 0.8"/>
      </g>
     </g>
     <g id="text_10">
      <!-- 0.8 -->
      <g transform="translate(24.816875 93.580061) scale(0.1 -0.1)">
       <use xlink:href="#DejaVuSans-30"/>
       <use xlink:href="#DejaVuSans-2e" x="63.623047"/>
       <use xlink:href="#DejaVuSans-38" x="95.410156"/>
      </g>
     </g>
    </g>
    <g id="ytick_6">
     <g id="line2d_10">
      <g>
       <use xlink:href="#mb45223ac9d" x="47.72" y="39.46" style="stroke: #000000; stroke-width: 0.8"/>
      </g>
     </g>
     <g id="text_11">
      <!-- 1.0 -->
      <g transform="translate(24.816875 43.259219) scale(0.1 -0.1)">
       <defs>
        <path id="DejaVuSans-31" d="M 794 531 
L 1825 531 
L 1825 4091 
L 703 3866 
L 703 4441 
L 1819 4666 
L 2450 4666 
L 2450 531 
L 3481 531 
L 3481 0 
L 794 0 
L 794 531 
z
" transform="scale(0.015625)"/>
       </defs>
       <use xlink:href="#DejaVuSans-31"/>
       <use xlink:href="#DejaVuSans-2e" x="63.623047"/>
       <use xlink:href="#DejaVuSans-30" x="95.410156"/>
      </g>
     </g>
    </g>
    <g id="text_12">
     <!-- Cumulative Density Function -->
     <g transform="translate(18.737188 237.249062) rotate(-90) scale(0.1 -0.1)">
      <defs>
       <path id="DejaVuSans-43" d="M 4122 4306 
L 4122 3641 
Q 3803 3938 3442 4084 
Q 3081 4231 2675 4231 
Q 1875 4231 1450 3742 
Q 1025 3253 1025 2328 
Q 1025 1406 1450 917 
Q 1875 428 2675 428 
Q 3081 428 3442 575 
Q 3803 722 4122 1019 
L 4122 359 
Q 3791 134 3420 21 
Q 3050 -91 2638 -91 
Q 1578 -91 968 557 
Q 359 1206 359 2328 
Q 359 3453 968 4101 
Q 1578 4750 2638 4750 
Q 3056 4750 3426 4639 
Q 3797 4528 4122 4306 
z
" transform="scale(0.015625)"/>
       <path id="DejaVuSans-75" d="M 544 1381 
L 544 3500 
L 1119 3500 
L 1119 1403 
Q 1119 906 1312 657 
Q 1506 409 1894 409 
Q 2359 409 2629 706 
Q 2900 1003 2900 1516 
L 2900 3500 
L 3475 3500 
L 3475 0 
L 2900 0 
L 2900 538 
Q 2691 219 2414 64 
Q 2138 -91 1772 -91 
Q 1169 -91 856 284 
Q 544 659 544 1381 
z
M 1991 3584 
L 1991 3584 
z
" transform="scale(0.015625)"/>
       <path id="DejaVuSans-6d" d="M 3328 2828 
Q 3544 3216 3844 3400 
Q 4144 3584 4550 3584 
Q 5097 3584 5394 3201 
Q 5691 2819 5691 2113 
L 5691 0 
L 5113 0 
L 5113 2094 
Q 5113 2597 4934 2840 
Q 4756 3084 4391 3084 
Q 3944 3084 3684 2787 
Q 3425 2491 3425 1978 
L 3425 0 
L 2847 0 
L 2847 2094 
Q 2847 2600 2669 2842 
Q 2491 3084 2119 3084 
Q 1678 3084 1418 2786 
Q 1159 2488 1159 1978 
L 1159 0 
L 581 0 
L 581 3500 
L 1159 3500 
L 1159 2956 
Q 1356 3278 1631 3431 
Q 1906 3584 2284 3584 
Q 2666 3584 2933 3390 
Q 3200 3197 3328 2828 
z
" transform="scale(0.015625)"/>
       <path id="DejaVuSans-6c" d="M 603 4863 
L 1178 4863 
L 1178 0 
L 603 0 
L 603 4863 
z
" transform="scale(0.015625)"/>
       <path id="DejaVuSans-76" d="M 191 3500 
L 800 3500 
L 1894 563 
L 2988 3500 
L 3597 3500 
L 2284 0 
L 1503 0 
L 191 3500 
z
" transform="scale(0.015625)"/>
       <path id="DejaVuSans-44" d="M 1259 4147 
L 1259 519 
L 2022 519 
Q 2988 519 3436 956 
Q 3884 1394 3884 2338 
Q 3884 3275 3436 3711 
Q 2988 4147 2022 4147 
L 1259 4147 
z
M 628 4666 
L 1925 4666 
Q 3281 4666 3915 4102 
Q 4550 3538 4550 2338 
Q 4550 1131 3912 565 
Q 3275 0 1925 0 
L 628 0 
L 628 4666 
z
" transform="scale(0.015625)"/>
       <path id="DejaVuSans-79" d="M 2059 -325 
Q 1816 -950 1584 -1140 
Q 1353 -1331 966 -1331 
L 506 -1331 
L 506 -850 
L 844 -850 
Q 1081 -850 1212 -737 
Q 1344 -625 1503 -206 
L 1606 56 
L 191 3500 
L 800 3500 
L 1894 763 
L 2988 3500 
L 3597 3500 
L 2059 -325 
z
" transform="scale(0.015625)"/>
       <path id="DejaVuSans-46" d="M 628 4666 
L 3309 4666 
L 3309 4134 
L 1259 4134 
L 1259 2759 
L 3109 2759 
L 3109 2228 
L 1259 2228 
L 1259 0 
L 628 0 
L 628 4666 
z
" transform="scale(0.015625)"/>
      </defs>
      <use xlink:href="#DejaVuSans-43"/>
      <use xlink:href="#DejaVuSans-75" x="69.824219"/>
      <use xlink:href="#DejaVuSans-6d" x="133.203125"/>
      <use xlink:href="#DejaVuSans-75" x="230.615234"/>
      <use xlink:href="#DejaVuSans-6c" x="293.994141"/>
      <use xlink:href="#DejaVuSans-61" x="321.777344"/>
      <use xlink:href="#DejaVuSans-74" x="383.056641"/>
      <use xlink:href="#DejaVuSans-69" x="422.265625"/>
      <use xlink:href="#DejaVuSans-76" x="450.048828"/>
      <use xlink:href="#DejaVuSans-65" x="509.228516"/>
      <use xlink:href="#DejaVuSans-20" x="570.751953"/>
      <use xlink:href="#DejaVuSans-44" x="602.539062"/>
      <use xlink:href="#DejaVuSans-65" x="679.541016"/>
      <use xlink:href="#DejaVuSans-6e" x="741.064453"/>
      <use xlink:href="#DejaVuSans-73" x="804.443359"/>
      <use xlink:href="#DejaVuSans-69" x="856.542969"/>
      <use xlink:href="#DejaVuSans-74" x="884.326172"/>
      <use xlink:href="#DejaVuSans-79" x="923.535156"/>
      <use xlink:href="#DejaVuSans-20" x="982.714844"/>
      <use xlink:href="#DejaVuSans-46" x="1014.501953"/>
      <use xlink:href="#DejaVuSans-75" x="1066.521484"/>
      <use xlink:href="#DejaVuSans-6e" x="1129.900391"/>
      <use xlink:href="#DejaVuSans-63" x="1193.279297"/>
      <use xlink:href="#DejaVuSans-74" x="1248.259766"/>
      <use xlink:href="#DejaVuSans-69" x="1287.46875"/>
      <use xlink:href="#DejaVuSans-6f" x="1315.251953"/>
      <use xlink:href="#DejaVuSans-6e" x="1376.433594"/>
     </g>
    </g>
   </g>
   <g id="line2d_11">
    <path d="M 66.005455 291.06 
L 66.811636 291.001036 
L 69.789472 290.81572 
L 71.155245 290.706215 
L 73.330223 290.567228 
L 87.968989 289.682766 
L 90.29817 289.518509 
L 94.221946 289.295287 
L 100.093887 288.878327 
L 100.387957 288.853056 
L 102.450898 288.714069 
L 103.788381 288.600353 
L 108.889112 288.259203 
L 111.963141 288.05704 
L 117.547822 287.627445 
L 117.697783 287.614809 
L 120.548087 287.42107 
L 120.72676 287.3958 
L 122.811751 287.227331 
L 123.249004 287.20206 
L 125.177737 287.046227 
L 127.552067 286.848275 
L 127.858935 286.83564 
L 130.155858 286.684018 
L 136.527602 285.968025 
L 136.806047 285.909061 
L 137.646045 285.774286 
L 137.929949 285.727957 
L 140.221071 285.315208 
L 141.464283 285.054081 
L 142.602557 284.830859 
L 142.899881 284.776107 
L 156.103224 282.198532 
L 156.798022 282.04691 
L 157.688527 281.865805 
L 157.937633 281.815265 
L 158.644843 281.646796 
L 160.032473 281.356187 
L 160.423483 281.288799 
L 161.127791 281.132965 
L 161.422572 281.061366 
L 162.833677 280.791816 
L 163.714966 280.6065 
L 164.715412 280.383278 
L 175.117888 278.121582 
L 176.836085 277.856244 
L 177.038227 277.814126 
L 177.91361 277.645657 
L 178.979342 277.371895 
L 179.89134 277.165521 
L 183.010129 276.28527 
L 183.674616 275.923062 
L 185.140525 275.06387 
L 185.322971 274.945942 
L 185.582515 274.802743 
L 186.265574 274.415265 
L 186.589717 274.242584 
L 187.01192 274.057268 
L 187.411326 273.86774 
L 187.86988 273.636096 
L 188.08785 273.50132 
L 188.913864 272.995913 
L 189.195625 272.844291 
L 189.385036 272.751633 
L 190.24852 272.199898 
L 190.560566 272.048275 
L 191.022313 271.820842 
L 191.391974 271.673432 
L 191.857046 271.433364 
L 192.438119 271.168025 
L 193.107611 270.763699 
L 193.526171 270.591019 
L 194.059952 270.30041 
L 194.365803 270.127729 
L 194.855193 269.870814 
L 195.93475 269.319078 
L 196.493078 268.990563 
L 196.763823 268.864212 
L 196.945839 268.771554 
L 197.480475 268.514639 
L 197.879173 268.312476 
L 198.127289 268.181912 
L 198.998295 267.604906 
L 199.296302 267.453284 
L 199.737315 267.234274 
L 200.672355 266.733079 
L 201.227112 266.408776 
L 201.55716 266.244519 
L 202.210486 265.844405 
L 202.649835 265.541161 
L 203.193825 265.225282 
L 203.515455 265.048389 
L 212.244491 260.040649 
L 212.541589 259.825851 
L 213.644445 259.223574 
L 214.186361 258.890848 
L 215.185319 258.3349 
L 215.345798 258.21276 
L 215.741695 258.010598 
L 216.474751 257.500979 
L 216.957209 257.164041 
L 217.424446 256.890279 
L 217.937082 256.540706 
L 218.462262 256.212191 
L 218.893403 255.967911 
L 219.512901 255.55095 
L 220.245365 255.096084 
L 220.470524 254.957097 
L 220.755038 254.780205 
L 220.947532 254.658065 
L 221.65624 254.211622 
L 226.094737 250.265236 
L 226.326431 250.037803 
L 226.486669 249.911451 
L 226.80674 249.633478 
L 226.988762 249.486067 
L 227.272545 249.1744 
L 227.812335 248.795344 
L 228.037531 248.601605 
L 228.280091 248.407866 
L 229.032258 247.839283 
L 229.238473 247.687661 
L 230.46237 246.664212 
L 230.697503 246.499954 
L 230.993182 246.259886 
L 231.375144 245.956642 
L 232.028772 245.476505 
L 232.865244 244.806841 
L 233.015762 244.663643 
L 233.453736 244.330916 
L 233.650924 244.170871 
L 233.835067 244.02346 
L 235.076571 242.941047 
L 235.225348 242.80206 
L 235.43344 242.625168 
L 235.789638 242.326135 
L 236.318463 241.951292 
L 236.525361 241.787035 
L 237.291871 241.172123 
L 237.455722 241.024713 
L 237.602647 240.910996 
L 237.929672 240.62881 
L 238.072045 240.523517 
L 238.30631 240.338201 
L 238.473465 240.186579 
L 239.772251 239.024143 
L 239.950556 238.889368 
L 240.699265 238.274456 
L 240.909696 238.139681 
L 241.654641 237.537405 
L 242.036269 237.217314 
L 243.209171 236.151747 
L 243.490081 235.953796 
L 243.807132 235.667399 
L 245.247502 234.332282 
L 245.525416 234.062732 
L 245.726549 233.885839 
L 246.384773 233.296198 
L 246.589 233.10667 
L 246.868955 232.896084 
L 247.730225 232.137974 
L 247.921089 232.003199 
L 249.27547 230.727046 
L 249.583016 230.465919 
L 249.760221 230.267968 
L 250.000167 230.070017 
L 250.212326 229.876278 
L 250.369328 229.674115 
L 250.628098 229.455105 
L 250.933463 229.227672 
L 251.296912 228.907581 
L 252.658529 227.601946 
L 252.829015 227.441901 
L 253.010956 227.302914 
L 253.385902 226.9744 
L 253.837173 226.641673 
L 254.106652 226.490051 
L 254.805515 225.883563 
L 255.016204 225.694035 
L 255.589627 224.700068 
L 256.302079 223.756642 
L 256.427528 223.609232 
L 256.5453 223.466033 
L 256.700949 223.280717 
L 256.871638 223.133307 
L 257.295798 222.497336 
L 257.590636 222.105646 
L 257.711464 221.954024 
L 257.918956 221.697109 
L 258.077252 221.486522 
L 258.261764 221.246454 
L 258.457377 221.010598 
L 267.409547 210.818224 
L 267.646124 210.544462 
L 271.296962 206.408549 
L 271.419914 206.269562 
L 271.612965 205.974741 
L 271.7918 205.738884 
L 274.295264 202.559032 
L 274.561422 202.196824 
L 277.376336 198.928526 
L 277.560029 198.713728 
L 282.781493 192.193978 
L 282.940204 190.231315 
L 283.501241 189.102573 
L 283.590195 188.95095 
L 283.860095 188.352886 
L 284.241251 187.674798 
L 284.670777 186.94617 
L 285.030699 186.327046 
L 285.154877 186.158577 
L 285.354046 185.817427 
L 285.647522 185.265692 
L 285.820134 184.954024 
L 285.934037 184.751861 
L 286.129141 184.435982 
L 286.483068 183.825282 
L 287.066095 182.907126 
L 287.208341 182.667057 
L 287.373084 182.389084 
L 287.782705 181.626762 
L 288.072454 181.070814 
L 288.284656 180.683335 
L 288.445257 180.291645 
L 289.006295 179.129209 
L 298.26219 167.130006 
L 298.368872 166.978384 
L 299.919649 165.024143 
L 300.037488 164.864098 
L 300.194492 164.682994 
L 302.45062 161.71794 
L 302.557957 161.566318 
L 303.058061 160.947194 
L 303.289806 160.61868 
L 303.497541 160.336494 
L 303.719863 160.037462 
L 304.157816 159.435185 
L 304.385271 159.148788 
L 304.521023 158.950837 
L 304.659626 158.719192 
L 304.85998 158.474912 
L 306.338402 156.166887 
L 306.539912 155.787832 
L 308.239832 153.14708 
L 308.433556 152.797507 
L 308.759837 152.186807 
L 310.225502 149.853512 
L 310.374309 149.689254 
L 310.511565 149.461821 
L 310.7658 149.044861 
L 311.053902 148.606841 
L 313.416323 145.309061 
L 313.554213 145.144804 
L 313.731353 144.963699 
L 316.643006 140.798304 
L 316.86982 140.490848 
L 317.077034 140.204451 
L 321.325816 133.912134 
L 321.4257 133.768936 
L 323.527223 130.694377 
L 323.625956 130.542755 
L 323.884552 130.0921 
L 328.407239 123.146966 
L 328.591851 122.856357 
L 333.532515 114.639283 
L 333.836132 113.978042 
L 333.92965 113.839055 
L 334.141789 113.514752 
L 334.857271 112.529209 
L 335.008085 112.364952 
L 335.156269 112.171212 
L 335.647712 111.560512 
L 335.862945 111.236209 
L 337.367743 109.383051 
L 337.536413 109.193523 
L 337.737134 108.953455 
L 338.251595 108.372237 
L 338.424418 108.165862 
L 338.818852 107.685726 
L 339.406516 106.898133 
L 339.796468 106.417997 
L 339.950756 106.198987 
L 340.466588 105.609345 
L 340.659359 105.335583 
L 340.990761 104.905987 
L 341.45764 104.312134 
L 341.629998 104.084701 
L 342.225974 103.263415 
L 342.385552 103.073887 
L 342.540167 102.825396 
L 342.783912 102.555845 
L 343.186252 102.063073 
L 343.371475 101.772464 
L 343.55892 101.612419 
L 343.736581 101.393409 
L 344.239852 100.719533 
L 344.373833 100.555276 
L 344.803846 100.016175 
L 344.930276 99.864553 
L 345.068536 99.683449 
L 345.527887 99.093808 
L 346.265754 98.29358 
L 346.849742 97.480717 
L 347.264769 96.962675 
L 347.66949 96.465692 
L 347.864483 96.221411 
L 348.375683 95.530689 
L 348.502098 95.353796 
L 349.093258 94.503028 
L 349.200544 94.364041 
L 349.949855 93.226875 
L 350.100756 93.037348 
L 350.511063 92.519306 
L 350.677714 92.291873 
L 351.273683 91.436892 
L 351.51339 91.16313 
L 351.9919 90.518736 
L 352.221524 90.16074 
L 352.705122 89.503711 
L 352.940745 89.137291 
L 353.26054 88.770871 
L 353.383746 88.62346 
L 353.648141 88.349698 
L 353.777925 88.214923 
L 354.547968 87.35152 
L 354.894489 86.934559 
L 355.030208 86.778725 
L 355.32619 86.454422 
L 355.506715 86.269106 
L 355.711855 86.113273 
L 355.932527 85.894263 
L 356.076501 85.772123 
L 356.186657 85.633136 
L 356.442693 85.388856 
L 356.63113 85.17827 
L 356.935822 84.816061 
L 357.067853 84.672863 
L 357.396413 84.289596 
L 357.583907 84.116915 
L 358.427566 83.232453 
L 360.809112 80.823347 
L 361.054614 80.583278 
L 361.223212 80.381116 
L 362.131503 79.387149 
L 362.262149 79.222891 
L 362.56012 78.885953 
L 362.805541 78.595344 
L 363.070153 78.321582 
L 363.853149 77.41185 
L 363.986931 77.264439 
L 364.204663 77.037006 
L 364.346809 76.85169 
L 364.645829 76.497906 
L 364.796237 76.333648 
L 365.111705 75.954593 
L 365.296023 75.765065 
L 365.593553 75.423916 
L 365.79236 75.209118 
L 365.943998 75.053284 
L 366.30019 74.632112 
L 369.660529 70.369846 
L 369.779822 70.260341 
L 369.890676 70.112931 
L 370.212415 69.826534 
L 371.568573 68.613557 
L 372.019861 68.263984 
L 372.154212 68.162903 
L 373.270808 67.274229 
L 373.426855 67.101548 
L 373.658636 66.878327 
L 373.941312 66.680376 
L 374.182688 66.461366 
L 374.635971 66.103369 
L 375.590041 65.172578 
L 375.800957 64.983051 
L 376.037958 64.797735 
L 376.420182 64.397621 
L 376.614033 64.241787 
L 377.059544 63.938543 
L 377.278891 63.732168 
L 377.489949 63.542641 
L 378.429825 62.750837 
L 378.655583 62.531827 
L 378.817245 62.359146 
L 379.430705 61.866375 
L 379.800214 61.550495 
L 380.00849 61.352544 
L 380.165043 61.179863 
L 380.365005 60.986124 
L 380.55685 60.83029 
L 380.811685 60.543893 
L 381.263224 60.177473 
L 382.098399 59.444633 
L 382.337467 59.24247 
L 382.472544 59.082425 
L 383.771417 57.839966 
L 383.957912 57.675709 
L 384.595659 57.145031 
L 387.493636 55.443495 
L 387.811652 55.249755 
L 388.102542 55.072863 
L 388.552258 54.752772 
L 388.728438 54.630632 
L 389.099208 54.415834 
L 389.27677 54.281059 
L 390.947894 53.223916 
L 391.088207 53.13547 
L 391.334906 52.975424 
L 391.570094 52.815378 
L 391.946534 52.638486 
L 392.115874 52.457382 
L 392.511654 52.170985 
L 392.988096 51.834047 
L 393.308142 51.615037 
L 393.627649 51.471838 
L 393.935566 51.294946 
L 394.775646 50.781116 
L 395.017605 50.637917 
L 395.288527 50.490507 
L 396.815279 50.014582 
L 397.362499 49.854536 
L 398.455827 49.530233 
L 398.678771 49.437575 
L 399.147179 49.298589 
L 399.950289 49.037462 
L 400.627339 48.826875 
L 401.968942 48.401491 
L 402.545554 48.258293 
L 405.851313 47.234843 
L 406.312738 47.10428 
L 414.362757 44.181343 
L 414.675191 44.05078 
L 415.273824 43.865464 
L 415.46966 43.793865 
L 416.111704 43.515891 
L 417.735827 42.601946 
L 418.015177 42.408207 
L 418.261703 42.02494 
L 418.277911 39.544234 
L 431.714545 39.46 
L 431.714545 39.46 
" clip-path="url(#pe82e7383ff)" style="fill: none; stroke: #1f77b4; stroke-width: 1.5; stroke-linecap: square"/>
   </g>
   <g id="patch_3">
    <path d="M 47.72 303.64 
L 47.72 26.88 
" style="fill: none; stroke: #000000; stroke-width: 0.8; stroke-linejoin: miter; stroke-linecap: square"/>
   </g>
   <g id="patch_4">
    <path d="M 450 303.64 
L 450 26.88 
" style="fill: none; stroke: #000000; stroke-width: 0.8; stroke-linejoin: miter; stroke-linecap: square"/>
   </g>
   <g id="patch_5">
    <path d="M 47.72 303.64 
L 450 303.64 
" style="fill: none; stroke: #000000; stroke-width: 0.8; stroke-linejoin: miter; stroke-linecap: square"/>
   </g>
   <g id="patch_6">
    <path d="M 47.72 26.88 
L 450 26.88 
" style="fill: none; stroke: #000000; stroke-width: 0.8; stroke-linejoin: miter; stroke-linecap: square"/>
   </g>
   <g id="text_13">
    <!-- prog4_lrucdf -->
    <g transform="translate(211.265313 20.88) scale(0.12 -0.12)">
     <defs>
      <path id="DejaVuSans-70" d="M 1159 525 
L 1159 -1331 
L 581 -1331 
L 581 3500 
L 1159 3500 
L 1159 2969 
Q 1341 3281 1617 3432 
Q 1894 3584 2278 3584 
Q 2916 3584 3314 3078 
Q 3713 2572 3713 1747 
Q 3713 922 3314 415 
Q 2916 -91 2278 -91 
Q 1894 -91 1617 61 
Q 1341 213 1159 525 
z
M 3116 1747 
Q 3116 2381 2855 2742 
Q 2594 3103 2138 3103 
Q 1681 3103 1420 2742 
Q 1159 2381 1159 1747 
Q 1159 1113 1420 752 
Q 1681 391 2138 391 
Q 2594 391 2855 752 
Q 3116 1113 3116 1747 
z
" transform="scale(0.015625)"/>
      <path id="DejaVuSans-72" d="M 2631 2963 
Q 2534 3019 2420 3045 
Q 2306 3072 2169 3072 
Q 1681 3072 1420 2755 
Q 1159 2438 1159 1844 
L 1159 0 
L 581 0 
L 581 3500 
L 1159 3500 
L 1159 2956 
Q 1341 3275 1631 3429 
Q 1922 3584 2338 3584 
Q 2397 3584 2469 3576 
Q 2541 3569 2628 3553 
L 2631 2963 
z
" transform="scale(0.015625)"/>
      <path id="DejaVuSans-5f" d="M 3263 -1063 
L 3263 -1509 
L -63 -1509 
L -63 -1063 
L 3263 -1063 
z
" transform="scale(0.015625)"/>
     </defs>
     <use xlink:href="#DejaVuSans-70"/>
     <use xlink:href="#DejaVuSans-72" x="63.476562"/>
     <use xlink:href="#DejaVuSans-6f" x="102.339844"/>
     <use xlink:href="#DejaVuSans-67" x="163.521484"/>
     <use xlink:href="#DejaVuSans-34" x="226.998047"/>
     <use xlink:href="#DejaVuSans-5f" x="290.621094"/>
     <use xlink:href="#DejaVuSans-6c" x="340.621094"/>
     <use xlink:href="#DejaVuSans-72" x="368.404297"/>
     <use xlink:href="#DejaVuSans-75" x="409.517578"/>
     <use xlink:href="#DejaVuSans-63" x="472.896484"/>
     <use xlink:href="#DejaVuSans-64" x="527.876953"/>
     <use xlink:href="#DejaVuSans-66" x="591.353516"/>
    </g>
   </g>
  </g>
 </g>
 <defs>
  <clipPath id="pe82e7383ff">
   <rect x="47.72" y="26.88" width="402.28" height="276.76"/>
  </clipPath>
 </defs>
</svg>
